<mxfile host="app.diagrams.net" modified="2024-05-27T17:43:51.962Z" agent="Mozilla/5.0 (Windows NT 10.0; Win64; x64) AppleWebKit/537.36 (KHTML, like Gecko) Chrome/125.0.0.0 Safari/537.36" etag="MF0Nr4p5R80cAGR3y17B" version="24.4.9" type="device">
  <diagram name="Strona-1" id="HsEo5W52fDbTF35tP13y">
    <mxGraphModel dx="1615" dy="1005" grid="1" gridSize="10" guides="1" tooltips="1" connect="1" arrows="1" fold="1" page="1" pageScale="1" pageWidth="827" pageHeight="1169" math="0" shadow="0">
      <root>
        <mxCell id="0" />
        <mxCell id="1" parent="0" />
        <mxCell id="VXkxd52t94LdjAe5KA_M-1" value="Dokonaj zgłoszenia" style="text;html=1;align=center;verticalAlign=middle;resizable=0;points=[];autosize=1;strokeColor=none;fillColor=none;" vertex="1" parent="1">
          <mxGeometry x="30" y="80" width="130" height="30" as="geometry" />
        </mxCell>
        <mxCell id="VXkxd52t94LdjAe5KA_M-13" value="" style="edgeStyle=orthogonalEdgeStyle;rounded=0;orthogonalLoop=1;jettySize=auto;html=1;" edge="1" parent="1" source="VXkxd52t94LdjAe5KA_M-2" target="VXkxd52t94LdjAe5KA_M-6">
          <mxGeometry relative="1" as="geometry" />
        </mxCell>
        <mxCell id="VXkxd52t94LdjAe5KA_M-2" value="System wyświetla okno z wybranym turniejem eliminacyjnym" style="rounded=1;whiteSpace=wrap;html=1;" vertex="1" parent="1">
          <mxGeometry x="220" y="230" width="120" height="60" as="geometry" />
        </mxCell>
        <mxCell id="VXkxd52t94LdjAe5KA_M-4" value="" style="edgeStyle=orthogonalEdgeStyle;rounded=0;orthogonalLoop=1;jettySize=auto;html=1;" edge="1" parent="1" source="VXkxd52t94LdjAe5KA_M-3" target="VXkxd52t94LdjAe5KA_M-2">
          <mxGeometry relative="1" as="geometry" />
        </mxCell>
        <mxCell id="VXkxd52t94LdjAe5KA_M-3" value="" style="ellipse;whiteSpace=wrap;html=1;aspect=fixed;" vertex="1" parent="1">
          <mxGeometry x="265" y="160" width="30" height="30" as="geometry" />
        </mxCell>
        <mxCell id="VXkxd52t94LdjAe5KA_M-5" value="Start" style="text;html=1;align=center;verticalAlign=middle;resizable=0;points=[];autosize=1;strokeColor=none;fillColor=none;" vertex="1" parent="1">
          <mxGeometry x="310" y="160" width="50" height="30" as="geometry" />
        </mxCell>
        <mxCell id="VXkxd52t94LdjAe5KA_M-14" value="" style="edgeStyle=orthogonalEdgeStyle;rounded=0;orthogonalLoop=1;jettySize=auto;html=1;" edge="1" parent="1" source="VXkxd52t94LdjAe5KA_M-6" target="VXkxd52t94LdjAe5KA_M-7">
          <mxGeometry relative="1" as="geometry" />
        </mxCell>
        <mxCell id="VXkxd52t94LdjAe5KA_M-6" value="Uczestnik wybiera opcję &quot;Zapisz się&quot;" style="rounded=1;whiteSpace=wrap;html=1;" vertex="1" parent="1">
          <mxGeometry x="220" y="320" width="120" height="60" as="geometry" />
        </mxCell>
        <mxCell id="VXkxd52t94LdjAe5KA_M-15" value="" style="edgeStyle=orthogonalEdgeStyle;rounded=0;orthogonalLoop=1;jettySize=auto;html=1;" edge="1" parent="1" source="VXkxd52t94LdjAe5KA_M-7" target="VXkxd52t94LdjAe5KA_M-8">
          <mxGeometry relative="1" as="geometry" />
        </mxCell>
        <mxCell id="VXkxd52t94LdjAe5KA_M-7" value="System wyświetla formularz zgłoszenia" style="rounded=1;whiteSpace=wrap;html=1;" vertex="1" parent="1">
          <mxGeometry x="220" y="410" width="120" height="60" as="geometry" />
        </mxCell>
        <mxCell id="VXkxd52t94LdjAe5KA_M-20" value="" style="edgeStyle=orthogonalEdgeStyle;rounded=0;orthogonalLoop=1;jettySize=auto;html=1;" edge="1" parent="1" source="VXkxd52t94LdjAe5KA_M-8" target="VXkxd52t94LdjAe5KA_M-11">
          <mxGeometry relative="1" as="geometry" />
        </mxCell>
        <mxCell id="VXkxd52t94LdjAe5KA_M-8" value="Uczestnik podaje niezbędne dane&amp;nbsp;" style="rounded=1;whiteSpace=wrap;html=1;" vertex="1" parent="1">
          <mxGeometry x="220" y="500" width="120" height="60" as="geometry" />
        </mxCell>
        <mxCell id="VXkxd52t94LdjAe5KA_M-21" value="" style="edgeStyle=orthogonalEdgeStyle;rounded=0;orthogonalLoop=1;jettySize=auto;html=1;" edge="1" parent="1" source="VXkxd52t94LdjAe5KA_M-11" target="VXkxd52t94LdjAe5KA_M-19">
          <mxGeometry relative="1" as="geometry" />
        </mxCell>
        <mxCell id="VXkxd52t94LdjAe5KA_M-11" value="Uczestnik zatwierdza wprowadzone dane" style="rounded=1;whiteSpace=wrap;html=1;" vertex="1" parent="1">
          <mxGeometry x="220" y="590" width="120" height="60" as="geometry" />
        </mxCell>
        <mxCell id="VXkxd52t94LdjAe5KA_M-30" style="edgeStyle=orthogonalEdgeStyle;rounded=0;orthogonalLoop=1;jettySize=auto;html=1;entryX=1;entryY=0.5;entryDx=0;entryDy=0;" edge="1" parent="1" source="VXkxd52t94LdjAe5KA_M-16" target="VXkxd52t94LdjAe5KA_M-8">
          <mxGeometry relative="1" as="geometry">
            <Array as="points">
              <mxPoint x="450" y="530" />
            </Array>
          </mxGeometry>
        </mxCell>
        <mxCell id="VXkxd52t94LdjAe5KA_M-16" value="System wyświetla komunikat o błędzie i prosi uczestnika o poprawienie wprowadzonych danych" style="rounded=1;whiteSpace=wrap;html=1;" vertex="1" parent="1">
          <mxGeometry x="390" y="765" width="130" height="105" as="geometry" />
        </mxCell>
        <mxCell id="VXkxd52t94LdjAe5KA_M-27" value="" style="edgeStyle=orthogonalEdgeStyle;rounded=0;orthogonalLoop=1;jettySize=auto;html=1;" edge="1" parent="1" source="VXkxd52t94LdjAe5KA_M-17" target="VXkxd52t94LdjAe5KA_M-26">
          <mxGeometry relative="1" as="geometry" />
        </mxCell>
        <mxCell id="VXkxd52t94LdjAe5KA_M-17" value="System potwierdza przyjęcie zgłoszenia" style="rounded=1;whiteSpace=wrap;html=1;" vertex="1" parent="1">
          <mxGeometry x="220" y="940" width="120" height="60" as="geometry" />
        </mxCell>
        <mxCell id="VXkxd52t94LdjAe5KA_M-25" value="" style="edgeStyle=orthogonalEdgeStyle;rounded=0;orthogonalLoop=1;jettySize=auto;html=1;" edge="1" parent="1" source="VXkxd52t94LdjAe5KA_M-18" target="VXkxd52t94LdjAe5KA_M-17">
          <mxGeometry relative="1" as="geometry" />
        </mxCell>
        <mxCell id="VXkxd52t94LdjAe5KA_M-18" value="System zatwierdza wprowadzone dane" style="rounded=1;whiteSpace=wrap;html=1;" vertex="1" parent="1">
          <mxGeometry x="220" y="840" width="120" height="60" as="geometry" />
        </mxCell>
        <mxCell id="VXkxd52t94LdjAe5KA_M-23" value="" style="edgeStyle=orthogonalEdgeStyle;rounded=0;orthogonalLoop=1;jettySize=auto;html=1;" edge="1" parent="1" source="VXkxd52t94LdjAe5KA_M-19" target="VXkxd52t94LdjAe5KA_M-22">
          <mxGeometry relative="1" as="geometry" />
        </mxCell>
        <mxCell id="VXkxd52t94LdjAe5KA_M-19" value="System sprawdza poprawność wprowadzonych danych" style="rounded=1;whiteSpace=wrap;html=1;" vertex="1" parent="1">
          <mxGeometry x="220" y="690" width="120" height="60" as="geometry" />
        </mxCell>
        <mxCell id="VXkxd52t94LdjAe5KA_M-24" value="" style="edgeStyle=orthogonalEdgeStyle;rounded=0;orthogonalLoop=1;jettySize=auto;html=1;" edge="1" parent="1" source="VXkxd52t94LdjAe5KA_M-22" target="VXkxd52t94LdjAe5KA_M-18">
          <mxGeometry relative="1" as="geometry" />
        </mxCell>
        <mxCell id="VXkxd52t94LdjAe5KA_M-29" value="" style="edgeStyle=orthogonalEdgeStyle;rounded=0;orthogonalLoop=1;jettySize=auto;html=1;" edge="1" parent="1" source="VXkxd52t94LdjAe5KA_M-22" target="VXkxd52t94LdjAe5KA_M-16">
          <mxGeometry relative="1" as="geometry" />
        </mxCell>
        <mxCell id="VXkxd52t94LdjAe5KA_M-22" value="" style="rhombus;whiteSpace=wrap;html=1;" vertex="1" parent="1">
          <mxGeometry x="265" y="780" width="30" height="30" as="geometry" />
        </mxCell>
        <mxCell id="VXkxd52t94LdjAe5KA_M-26" value="" style="ellipse;whiteSpace=wrap;html=1;aspect=fixed;" vertex="1" parent="1">
          <mxGeometry x="265" y="1020" width="30" height="30" as="geometry" />
        </mxCell>
        <mxCell id="VXkxd52t94LdjAe5KA_M-28" value="End" style="text;html=1;align=center;verticalAlign=middle;resizable=0;points=[];autosize=1;strokeColor=none;fillColor=none;" vertex="1" parent="1">
          <mxGeometry x="310" y="1020" width="40" height="30" as="geometry" />
        </mxCell>
        <mxCell id="VXkxd52t94LdjAe5KA_M-31" value="Wyjątek" style="text;html=1;align=center;verticalAlign=middle;resizable=0;points=[];autosize=1;strokeColor=none;fillColor=none;" vertex="1" parent="1">
          <mxGeometry x="290" y="765" width="70" height="30" as="geometry" />
        </mxCell>
      </root>
    </mxGraphModel>
  </diagram>
</mxfile>
